<?xml version="1.0" encoding="UTF-8"?>
<svg width="1200pt" height="1200pt" version="1.1" viewBox="0 0 1200 1200" xmlns="http://www.w3.org/2000/svg">
 <path d="m794.4 92.355h356.51v355.22l49.086-7.75v485.68c0 76.211-82.668 117.55-151.13 117.55-67.168 0-149.84-41.336-149.84-117.55 0-76.211 82.668-117.55 149.84-117.55 40.043 0 81.379 11.625 111.09 37.461v-228.63l-9.043 1.293v108.5h-343.59v263.51c0 77.504-82.668 117.55-149.84 117.55-68.461 0-151.13-40.043-151.13-117.55 0-76.211 82.668-117.55 151.13-117.55 38.75 0 80.086 12.918 111.09 38.75v-184.71h-768.57v-634.23h794.4zm-25.836 595.48v-176.96l25.836-3.875v-58.129h-40.043v-317.76h-37.461v317.76h-41.336v238.96h93.004zm65.879-187.3 118.84-19.375v-32.293h-43.918v-317.76h-36.168v317.76h-38.75zm158.88-27.125 118.84-19.375v-322.93h-83.961v317.76h-34.875zm118.84 151.13-118.84 20.668v42.625h118.84zm-158.88 28.418-118.84 20.668v14.207h118.84zm-317.76-204.09h-37.461v-317.76h-81.379v556.73h118.84v-238.96zm-357.8 0h40.043v238.96h-120.13v-238.96h40.043v-317.76h40.043zm78.793 0h40.043v-317.76h80.086v556.73h-120.13zm-197.63 0h-40.043v-317.76h-80.086v556.73h120.13z" fill="#031058" fill-rule="evenodd"/>
</svg>
