<?xml version="1.0" encoding="UTF-8"?>
<svg width="1200pt" height="1200pt" version="1.1" viewBox="0 0 1200 1200" xmlns="http://www.w3.org/2000/svg">
 <g fill="#031058">
  <path d="m530.49 1044.5 340.24-76.828v32.926l-310.98 69.512c-7.3164-3.6602-10.977-7.3164-14.633-10.977-3.6602-3.6602-7.3164-10.977-14.633-14.633z" fill-rule="evenodd"/>
  <path d="m80.488 503.05 314.63-80.488c124.39 21.953 245.12 47.562 369.51 73.172 14.633 3.6602 18.293 69.512-3.6602 98.781l-32.926 21.953c18.293 0 40.242 3.6602 58.535 3.6602 14.633 32.926 14.633 73.172 0 106.1l-80.488 54.879 168.29 43.902v32.926c-168.29 32.926-336.59 65.855-504.88 98.781-25.609 29.27-21.953 87.805 7.3164 120.73l76.828-14.633c3.6602 7.3164 10.977 18.293 18.293 25.609l-91.465 21.953c-14.633 3.6602-18.293 3.6602-36.586-7.3164-109.76-65.855-215.86-135.37-329.27-201.22-14.633-32.926-25.609-87.805 3.6602-124.39l29.27-10.977-3.6602 18.293 431.71 91.465c25.609-18.293 21.953-98.781 7.3164-102.44l-435.37-80.488v-40.242l32.926 3.6602-3.6602-36.586c131.71 32.926 267.07 69.512 398.78 102.44 18.293-10.977 21.953-62.195 3.6602-91.465l-402.44-87.805 3.6602-40.242z" fill-rule="evenodd"/>
  <path d="m395.12 967.68 457.32-91.465v10.977l-457.32 91.465z"/>
  <path d="m395.12 989.63 457.32-87.805v10.977l-457.32 87.805z"/>
  <path d="m395.12 1015.2 457.32-91.465v14.633l-347.56 65.855c7.3164 29.27 18.293 43.902 36.586 62.195 7.3164 7.3164 21.953 18.293 36.586 25.609-21.953 3.6602-25.609 3.6602-47.562 3.6602-7.3164 18.293-18.293 29.27-25.609 43.902 0 0-3.6602-14.633-7.3164-32.926-10.977-14.633-32.926-36.586-40.242-54.879-3.6602-7.3164-7.3164-21.953-10.977-36.586l-51.219 10.977z"/>
  <path d="m515.86 1015.2 336.58-65.852v10.977l-332.93 65.852v-10.977z"/>
  <path d="m395.12 1037.2 47.562-7.3164v10.977l-47.562 10.973z"/>
  <path d="m1181.7 437.2-3.6602 10.977 10.977 3.6602v-3.6602c0-3.6602 3.6602-3.6602 7.3164-3.6602l3.6602 3.6602-18.293 160.98c0 3.6602-3.6602 3.6602-3.6602 3.6602-3.6602 0-3.6602 0-3.6602-3.6602l14.633-139.02h-10.977l-14.633 139.02-43.902-3.6602 18.293-175.61c0-7.3164 7.3164-14.633 18.293-14.633v-10.977c0-3.6602 3.6602-7.3164 7.3164-7.3164 3.6602 3.6602 7.3164 3.6602 3.6602 7.3164v10.977c7.3164 3.6602 14.633 10.977 14.633 21.953z" fill-rule="evenodd"/>
  <path d="m925.61 473.78 14.633 160.98c-3.6602 0-7.3164-3.6602-10.977-3.6602 7.3164 124.39 14.633 248.78 18.293 369.51 65.855 14.633 142.68 14.633 212.2 0 7.3164-120.73 10.977-245.12 18.293-369.51-7.3164 0-10.977 3.6602-18.293 3.6602l3.6602-18.293-43.902-3.6602-3.6602 32.926h-14.633v-585.37h-95.121v589.02c-7.3164 0-10.977-3.6602-18.293-3.6602l-18.293-175.61-43.902 3.6602zm124.39-395.12h40.242v7.3164h-40.242zm18.293 29.27h21.953v10.977h-21.953zm0 36.586h21.953v7.3164h-21.953zm0 32.926h21.953v7.3164h-21.953zm0 32.926h21.953v7.3164h-21.953zm-18.293 32.926h40.242v7.3164h-40.242zm18.293 32.926h21.953v10.977h-21.953zm0 32.926h21.953v10.977h-21.953zm0 36.586h21.953v7.3164h-21.953zm0 32.926h21.953v7.3164h-21.953zm-18.293 32.926h40.242v7.3164h-40.242zm18.293 32.926h21.953v7.3164h-21.953zm0 32.926h21.953v10.977h-21.953zm0 36.586h21.953v7.3164h-21.953zm0 32.926h21.953v7.3164h-21.953zm-18.293 32.926h40.242v7.3164h-40.242zm18.293 32.926h21.953v7.3164h-21.953z" fill-rule="evenodd"/>
  <path d="m921.95 440.86 3.6602 25.609 43.902-7.3164-3.6602-21.953c-3.6602-18.293-43.902-14.633-43.902 3.6602z" fill-rule="evenodd"/>
 </g>
</svg>
