<?xml version="1.0" encoding="UTF-8"?>
<svg width="1200pt" height="1200pt" version="1.1" viewBox="0 0 1200 1200" xmlns="http://www.w3.org/2000/svg">
 <g fill="#031058">
  <path d="m852.96 415.2c28.801 41.039 72.238 119.88 116.04 262.2 12 38.879 21.359 74.398 28.078 101.4 5.6406-16.922 12.121-46.922 8.5195-90.48-6.3594-76.078-50.879-212.88-81.48-267.24-15.48-27.48-47.641-84.602-104.4-136.44-59.879-54.719-130.08-87.602-209.04-98.16 90.359 49.32 180.48 140.64 242.16 228.6z"/>
  <path d="m525.84 295.8c65.879 44.641 129.72 113.64 189.6 204.96 66.121 100.8 105.96 211.44 127.68 286.56 18.48 63.961 27.48 113.76 30.48 132.36 64.559-24 112.08-77.039 121.92-88.801-3-14.16-16.559-75.602-39.359-149.76-23.879-77.641-63-185.4-114.24-258.36-49.32-70.32-110.88-135.12-173.28-182.4-33.121-25.078-65.16-44.281-95.52-57.359-0.23828 0-0.48047-0.23828-0.71875-0.35938-33.48-14.281-64.801-21-93-19.68h-1.3203c-0.48047 0-45.719-6.1211-94.32 22.801-27.359 16.32-63.84 37.078-91.68 52.922 16.199-2.6406 32.398-4.0781 48.48-4.0781 62.879 0 124.8 20.52 185.04 61.199z"/>
  <path d="m159.72 789.72c29.52 32.879 68.281 60.359 115.32 81.84 103.32 47.039 210.96 75.84 311.28 83.16 98.52 7.1992 180.72-6.9609 238.32-40.922-7.8008-31.441-55.078-215.52-130.2-345.6-19.801-34.32-52.32-85.441-95.16-134.4-44.641-51.121-90.238-88.199-135.6-110.28-54.602-26.52-105.36-38.641-150.84-36-51.602 3-96.238 25.32-132.84 66.238-44.641 57.84-84.961 239.52-86.762 247.8-0.35938 3.4805-5.0391 46.68 13.801 99.961 11.398 32.281 29.16 62.039 52.68 88.199z"/>
  <path d="m1006.9 617.64c6.1211 26.641 10.199 50.641 11.762 69.719 5.6406 67.922-11.879 104.76-16.441 113.16 4.5586 19.199 6.8398 30.719 6.9609 30.961 0.35938 1.9219 0 3.8398-1.3203 5.3984-2.2812 2.8789-57.359 71.641-137.52 98.039-0.60156 0.23828-1.3203 0.35938-2.0391 0.35938h-0.23828-0.71875-0.35938c-0.23828 0-0.48047 0-0.60156-0.12109l-33.238-10.801c-49.922 30.121-117.72 45.602-198 45.602-16.078 0-32.641-0.60156-49.68-1.9219-101.88-7.4414-211.08-36.719-315.84-84.359-48.84-22.199-89.16-51-120-85.32-24.719-27.602-43.32-58.922-55.199-93-9-25.801-12.84-49.078-14.281-67.199-1.9219 6.1211-3.6016 12.961-5.0391 20.52-7.1992 39.121-1.5586 77.281 16.801 113.16 20.52 40.32 98.039 96.359 207.24 149.88 105.84 51.961 224.28 92.641 309.24 106.44 85.559 13.801 172.8 12.84 252.12-2.8789 74.398-14.762 138.84-42.359 181.68-77.641 26.16-21.602 46.801-44.762 61.441-69 17.398-28.68 25.559-58.078 24.359-87.121-2.3984-59.16-43.078-117.48-120.96-173.64z"/>
  <path d="m469.56 311.64c46.922 22.801 93.84 60.961 139.8 113.52 43.441 49.801 76.559 101.64 96.602 136.44 76.801 133.2 124.8 321.72 131.76 350.16l22.441 7.1992c-3.3594-20.16-12.238-67.68-29.762-128.16-21.48-74.16-60.84-183.36-126-282.72-58.922-89.879-121.56-157.68-186-201.24-86.398-58.559-176.28-73.559-267.24-44.641l-32.039 41.398c67.559-41.879 152.88-39.359 250.44 8.1602z"/>
 </g>
</svg>
