<?xml version="1.0" encoding="UTF-8"?>
<svg width="1200pt" height="1200pt" version="1.1" viewBox="0 0 1200 1200" xmlns="http://www.w3.org/2000/svg">
 <g fill="#031058">
  <path d="m611.67 593.33v13.332c-1.668 18.332-86.668 35-193.33 35-106.67 0-191.67-15-193.33-35v-13.332c-123.34 56.668-208.34 166.67-208.34 293.34s83.332 236.67 208.33 293.33c3.332 1.668 8.332 3.332 13.332 3.332h360c5 0 10-1.668 13.332-3.332 123.33-56.668 208.33-166.67 208.33-293.33 0.003906-126.67-84.996-236.67-208.33-293.34z"/>
  <path d="m855 16.668c-160 0-291.67 65-321.67 151.67-3.332 6.668-10 13.332-20 13.332h-26.668c-8.332 0-13.332-5-16.668-10-5-10-11.668-18.332-21.668-25-5-3.332-8.332-8.332-8.332-13.332l0.003906-40.004c0-13.332-13.332-25-30-25s-30 11.668-30 25v40c0 5-3.332 10-8.332 13.332-18.332 13.332-30 35-30 60s11.668 46.668 30 60c5 3.332 8.332 8.332 8.332 13.332v61.668c0 6.668-6.668 11.668-15 11.668h-70c-8.332 0-15 5-15 11.668v195c0 13.332 58.332 23.332 128.33 23.332s126.67-10 128.33-23.332l0.003907-195c0-6.668-6.668-11.668-15-11.668h-70c-8.332 0-15-5-15-11.668v-61.668c0-5 3.332-10 8.332-13.332 8.332-6.668 16.668-15 21.668-25 3.332-6.668 10-10 16.668-10h26.668c10 0 16.668 5 20 13.332 30 86.668 163.33 151.67 321.67 151.67 181.67 0 328.33-85 328.33-190-0.003906-105-143.34-190-325-190z"/>
 </g>
</svg>
