<?xml version="1.0" encoding="UTF-8"?>
<svg width="1200pt" height="1200pt" version="1.1" viewBox="0 0 1200 1200" xmlns="http://www.w3.org/2000/svg">
 <g fill="#031058">
  <path d="m951.6 733.2v-703.2h-703.2v703.2h188.4l-50.398 127.2h-50.398c-18 0-31.199 14.398-31.199 31.199 0 16.801 14.398 31.199 31.199 31.199l24 0.003906-81.602 202.8c-7.1992 15.602 1.1992 34.801 18 40.801 3.6016 1.1992 7.1992 2.3984 12 2.3984 12 0 24-7.1992 28.801-20.398l91.199-224.4h351.6l90 226.8c4.8008 12 16.801 20.398 28.801 20.398 3.6016 0 7.1992-1.1992 12-2.3984 15.602-6 24-24 16.801-40.801l-80.402-204h25.199c18 0 31.199-14.398 31.199-31.199s-14.398-31.199-31.199-31.199h-50.398l-50.398-127.2 180-0.003906zm-644.4-644.4h586.8v586.8h-586.8zm196.8 644.4h68.398v127.2h-118.8zm250.8 127.2h-118.8v-127.2h68.398z"/>
  <path d="m338.4 530.4 76.801-74.398c26.398-26.398 69.602-26.398 96 0l61.199 58.801 123.6-146.4c26.398-30 73.199-30 100.8 0l63.602 72-0.003906-320.4h-522zm135.6-345.6c38.398 0 70.801 31.199 70.801 70.801 0 38.398-31.199 70.801-70.801 70.801s-70.801-31.199-70.801-70.801c0-39.602 31.199-70.801 70.801-70.801z"/>
 </g>
</svg>
