<?xml version="1.0" encoding="UTF-8"?>
<svg width="1200pt" height="1200pt" version="1.1" viewBox="0 0 1200 1200" xmlns="http://www.w3.org/2000/svg">
 <g fill="#031058">
  <path d="m421.88 534.38h354.38c-1.875 60-15 114.38-58.125 157.5-52.5 50.625-110.62 63.75-178.12 43.125 0 0-88.125-20.625-112.5-123.75-1.875-18.75-7.5-37.5-7.5-54.375 1.875-9.375 1.875-16.875 1.875-22.5z"/>
  <path d="m776.25 451.88v35.625h-354.38v-35.625z"/>
  <path d="m778.12 369.38v35.625h-356.25v-35.625z"/>
  <path d="m778.12 283.12v41.25h-356.25v-112.5c0-86.25 61.875-168.75 136.88-185.62 58.125-13.125 120 3.75 163.12 50.625 48.75 52.5 58.125 131.25 56.25 206.25z"/>
  <path d="m697.5 864.38c176.25-71.25 236.25-238.12 221.25-429.38-1.875-22.5-18.75-35.625-37.5-35.625-18.75 1.875-31.875 18.75-31.875 41.25v76.875c-1.875 114.38-50.625 198.75-138.75 253.12-35.625 20.625-73.125 31.875-110.62 30-37.5 0-73.125-9.375-110.62-30-90-52.5-136.88-136.88-138.75-253.12v-76.875c0-22.5-13.125-39.375-31.875-41.25s-35.625 11.25-37.5 35.625c-16.875 189.38 45 356.25 221.25 429.38 18.75 7.5 41.25 11.25 61.875 16.875v217.5h-127.5c-7.5 0-15 0-22.5 1.875-18.75 5.625-30 24.375-28.125 43.125s15 33.75 31.875 35.625h11.25 168.75 168.75 11.25c16.875-1.875 31.875-16.875 31.875-35.625 1.875-18.75-9.375-37.5-26.25-43.125-7.5-1.875-15-1.875-22.5-1.875h-127.5v-217.5c24.375-5.625 45-9.375 63.75-16.875z"/>
 </g>
</svg>
