<?xml version="1.0" encoding="UTF-8"?>
<svg width="1200pt" height="1200pt" version="1.1" viewBox="0 0 1200 1200" xmlns="http://www.w3.org/2000/svg">
 <path d="m1081.3 369c15.75 0 30.562 6.1875 41.812 17.438 1.125 0.9375 2.0625 2.0625 2.8125 3 4.875 6.375 13.312 8.8125 20.812 6.1875s12.562-9.75 12.562-17.812v-187.69c0-10.5-8.25-18.75-18.75-18.75h-147.56c4.6875-11.625 7.125-24 7.125-36.938 0-53.438-43.312-96.938-96.562-96.938s-96.562 43.5-96.562 96.938c0 12.938 2.4375 25.312 7.125 36.938h-295.31c4.6875-11.625 7.3125-24 7.3125-36.938 0-53.438-43.312-96.938-96.562-96.938s-96.75 43.5-96.75 96.938c0 12.938 2.625 25.312 7.3125 36.938h-147.75c-10.312 0-18.75 8.25-18.75 18.75v148.5c-11.438-4.6875-23.625-7.125-36.375-7.125-53.25 0-96.562 43.5-96.562 96.938 0 53.625 43.312 97.125 96.562 97.125 12.75 0 24.938-2.4375 36.375-7.125v297c-11.438-4.6875-23.625-7.125-36.375-7.125-53.25 0-96.562 43.5-96.562 96.938 0 53.625 43.312 97.125 96.562 97.125 12.75 0 24.938-2.4375 36.375-7.125v148.5c0 10.312 8.4375 18.75 18.75 18.75h186.75c7.875 0 15-5.0625 17.625-12.562s0.375-15.938-6-20.812c-0.9375-0.9375-2.0625-1.875-3-2.8125-23.062-23.25-23.062-61.125 0-84.188 11.25-11.25 26.062-17.438 41.812-17.438s30.562 6.1875 41.625 17.438c23.25 23.062 23.25 60.938 0 84.188-0.9375 0.9375-2.0625 1.875-3 2.8125-6.375 4.875-8.625 13.312-6 20.812s9.75 12.562 17.625 12.562h373.31c8.0625 0 15.188-5.0625 17.812-12.562s0.1875-15.938-6-20.812c-1.125-0.9375-2.0625-1.875-3-2.8125-23.062-23.25-23.062-61.125-0.1875-84.188 11.25-11.25 26.062-17.438 41.812-17.438h0.1875c15.75 0 30.375 6.1875 41.625 17.438 23.062 23.062 23.062 60.938 0 84.188-1.125 0.9375-2.0625 1.875-3.1875 2.8125-6.1875 4.875-8.625 13.312-6 20.812s9.75 12.562 17.812 12.562h186.56c10.5 0 18.75-8.4375 18.75-18.75v-187.69c0-8.0625-5.0625-15.188-12.562-17.812s-15.75-0.1875-20.812 6c-0.75 1.125-1.6875 2.25-2.8125 3.1875-11.25 11.25-26.062 17.438-41.812 17.438s-30.562-6.1875-41.625-17.438c-23.25-23.25-23.25-61.125 0-84.188 11.062-11.25 25.688-16.688 41.625-17.438 15.75 0 30.562 6.1875 41.812 17.438 1.125 0.9375 2.0625 2.0625 2.8125 3 4.875 6.375 13.312 8.8125 20.812 6.1875s12.562-9.75 12.562-17.812v-375.56c0-7.875-5.0625-15-12.562-17.625s-15.75-0.1875-20.812 6c-0.75 1.125-1.6875 2.0625-2.8125 3.1875-11.25 11.25-26.062 17.25-41.812 17.25s-30.562-6.1875-41.625-17.25c-23.25-23.25-23.25-61.125 0-84.375 11.062-11.062 25.688-17.062 41.625-17.25zm-433.5 756h-130.69c16.5-36 10.125-79.875-19.312-109.31-18.188-18.375-42.375-28.5-68.25-28.5s-50.062 10.125-68.438 28.5c-29.25 29.438-35.625 73.312-19.125 109.31h-130.88v-164.62c0-7.5-4.5-14.438-11.625-17.25-6.9375-3-15-1.3125-20.438 4.125-11.25 11.25-26.062 17.625-41.812 17.625-32.625 0-59.062-26.812-59.062-59.625s26.438-59.438 59.062-59.438c15.75 0 30.562 6.1875 41.812 17.625 5.4375 5.25 13.5 6.9375 20.438 4.125 7.125-2.8125 11.625-9.75 11.625-17.438v-164.44h168c7.875 0 15-5.0625 17.625-12.562s0.375-15.938-6-20.812c-0.9375-0.9375-2.0625-1.875-3-2.8125-23.062-23.25-23.062-61.125 0-84.188 11.25-11.438 26.062-17.625 41.812-17.625 15.75 0.1875 30.562 6.375 41.625 17.625 23.25 23.062 23.25 60.938 0 84.188-0.9375 0.9375-2.0625 1.875-3 2.8125-6.375 4.875-8.625 13.312-6 20.812s9.75 12.562 17.625 12.562h168v129.75c-11.438-4.6875-23.812-7.125-36.562-7.125-53.25 0-96.562 43.5-96.562 96.938 0 53.625 43.312 97.125 96.562 97.125 12.75 0 25.125-2.4375 36.562-7.125zm365.25-627.94c18.188 18.188 42.375 28.312 68.25 28.312 14.25 0 27.938-3 40.5-8.8125v131.62h-130.69c16.688-36 10.125-79.875-19.125-109.31-18.188-18.375-42.375-28.5-68.25-28.688h-0.1875c-25.688 0-50.062 10.125-68.25 28.5-29.438 29.625-35.812 73.5-19.312 109.5h-130.69v-169.12c0-7.875-5.0625-15-12.562-17.625s-15.938-0.1875-20.812 6c-0.9375 1.125-1.875 2.0625-2.8125 3.1875-11.25 11.25-26.062 17.25-41.812 17.25h-0.1875c-15.75 0-30.562-6.1875-41.625-17.25-23.062-23.25-23.062-61.125 0.1875-84.375 11.062-11.062 25.688-17.25 41.438-17.25h0.1875c15.75 0 30.562 6.1875 41.625 17.438h0.1875c0.9375 0.9375 1.875 2.0625 2.625 3 5.0625 6.375 13.5 8.8125 21 6.1875s12.562-9.75 12.562-17.812v-168.94h163.5c7.5 0 14.438-4.6875 17.25-11.625 3-6.9375 1.3125-15.188-3.9375-20.438-11.438-11.25-17.625-26.25-17.625-42.375 0-32.812 26.438-59.438 59.062-59.438s59.062 26.625 59.062 59.438c0 16.125-6.1875 31.125-17.438 42.375-5.4375 5.25-7.125 13.5-4.125 20.438 2.8125 6.9375 9.75 11.625 17.25 11.625h163.5v131.44c-12.562-5.8125-26.25-8.8125-40.5-8.8125-25.875 0-50.062 10.125-68.25 28.312-37.688 37.875-37.688 99.375 0 137.25z" fill="#031058"/>
</svg>
