<?xml version="1.0" encoding="UTF-8"?>
<svg width="1200pt" height="1200pt" version="1.1" viewBox="0 0 1200 1200" xmlns="http://www.w3.org/2000/svg">
 <path d="m1068.8 959.62v-119.06c10.973-3.8789 20.469-11.066 27.188-20.57 6.7148-9.5039 10.32-20.855 10.312-32.492 0-54.699-21.73-107.16-60.41-145.84-38.68-38.68-91.141-60.41-145.84-60.41h-225c-8.25 0-16.312 0-24.375 1.3125l3.75-38.812h1.875c9.9453 0 19.484-3.9492 26.516-10.984 7.0352-7.0312 10.984-16.57 10.984-26.516v-75c0-9.9453-3.9492-19.484-10.984-26.516-7.0312-7.0352-16.57-10.984-26.516-10.984h-1.125c-4.5664-36.258-22.215-69.602-49.629-93.766-27.41-24.168-62.703-37.496-99.246-37.484h-93.75v-72.938c5.9258-5.3008 9.332-12.863 9.375-20.812 0-7.4609 2.9648-14.613 8.2383-19.887 5.2734-5.2734 12.426-8.2383 19.887-8.2383 7.9492-0.042969 15.512-3.4492 20.812-9.375h222.94v-37.5h-222.94c-5.3008-5.9258-12.863-9.332-20.812-9.375-22.363 0.050781-43.793 8.9531-59.609 24.766-15.812 15.816-24.715 37.246-24.766 59.609 0.042969 7.9492 3.4492 15.512 9.375 20.812v72.938h-93.75c-36.543-0.011719-71.836 13.316-99.246 37.484-27.414 24.164-45.062 57.508-49.629 93.766h-1.125c-9.9453 0-19.484 3.9492-26.516 10.984-7.0352 7.0312-10.984 16.57-10.984 26.516v75c0 9.9453 3.9492 19.484 10.984 26.516 7.0312 7.0352 16.57 10.984 26.516 10.984h1.875l56.25 562.5h860.62c14.918 0 29.227-5.9258 39.773-16.477 10.551-10.547 16.477-24.855 16.477-39.773v-37.5c-0.03125-11.605-3.6523-22.918-10.367-32.383-6.7148-9.4648-16.191-16.625-27.133-20.492zm-346.31-3.375-51.75 30.562-17.438-30.562-21.188-37.5h153.75zm-112.5 0h-66.188v-37.5h45.375zm-9.9375-225c0-4.9727 1.9766-9.7422 5.4922-13.258 3.5156-3.5156 8.2852-5.4922 13.258-5.4922s9.7422 1.9766 13.258 5.4922c3.5156 3.5156 5.4922 8.2852 5.4922 13.258s-1.9766 9.7422-5.4922 13.258c-3.5156 3.5156-8.2852 5.4922-13.258 5.4922s-9.7422-1.9766-13.258-5.4922c-3.5156-3.5156-5.4922-8.2852-5.4922-13.258zm112.5 0c0-4.9727 1.9766-9.7422 5.4922-13.258 3.5156-3.5156 8.2852-5.4922 13.258-5.4922s9.7422 1.9766 13.258 5.4922c3.5156 3.5156 5.4922 8.2852 5.4922 13.258s-1.9766 9.7422-5.4922 13.258c-3.5156 3.5156-8.2852 5.4922-13.258 5.4922s-9.7422-1.9766-13.258-5.4922c-3.5156-3.5156-5.4922-8.2852-5.4922-13.258zm56.25-56.25c0-4.9727 1.9766-9.7422 5.4922-13.258 3.5156-3.5156 8.2852-5.4922 13.258-5.4922s9.7422 1.9766 13.258 5.4922c3.5156 3.5156 5.4922 8.2852 5.4922 13.258s-1.9766 9.7422-5.4922 13.258c-3.5156 3.5156-8.2852 5.4922-13.258 5.4922s-9.7422-1.9766-13.258-5.4922c-3.5156-3.5156-5.4922-8.2852-5.4922-13.258zm56.25 56.25c0-4.9727 1.9766-9.7422 5.4922-13.258 3.5156-3.5156 8.2852-5.4922 13.258-5.4922s9.7422 1.9766 13.258 5.4922c3.5156 3.5156 5.4922 8.2852 5.4922 13.258s-1.9766 9.7422-5.4922 13.258c-3.5156 3.5156-8.2852 5.4922-13.258 5.4922s-9.7422-1.9766-13.258-5.4922c-3.5156-3.5156-5.4922-8.2852-5.4922-13.258zm131.25 18.75c-4.9727 0-9.7422-1.9766-13.258-5.4922-3.5156-3.5156-5.4922-8.2852-5.4922-13.258s1.9766-9.7422 5.4922-13.258c3.5156-3.5156 8.2852-5.4922 13.258-5.4922s9.7422 1.9766 13.258 5.4922c3.5156 3.5156 5.4922 8.2852 5.4922 13.258s-1.9766 9.7422-5.4922 13.258c-3.5156 3.5156-8.2852 5.4922-13.258 5.4922zm-37.5-75c0 4.9727-1.9766 9.7422-5.4922 13.258-3.5156 3.5156-8.2852 5.4922-13.258 5.4922s-9.7422-1.9766-13.258-5.4922c-3.5156-3.5156-5.4922-8.2852-5.4922-13.258s1.9766-9.7422 5.4922-13.258c3.5156-3.5156 8.2852-5.4922 13.258-5.4922s9.7422 1.9766 13.258 5.4922c3.5156 3.5156 5.4922 8.2852 5.4922 13.258zm-225 0c0 4.9727-1.9766 9.7422-5.4922 13.258-3.5156 3.5156-8.2852 5.4922-13.258 5.4922s-9.7422-1.9766-13.258-5.4922c-3.5156-3.5156-5.4922-8.2852-5.4922-13.258s1.9766-9.7422 5.4922-13.258c3.5156-3.5156 8.2852-5.4922 13.258-5.4922s9.7422 1.9766 13.258 5.4922c3.5156 3.5156 5.4922 8.2852 5.4922 13.258zm337.5 281.25h-235.12l63.375-37.5h171.75zm-108.19-75h-379.31v-37.5h487.5v37.5zm-752.44-337.5h446.25l-4.875 47.25c-14.258 4.6172-27.914 10.91-40.688 18.75l-7.3125 4.3125c-12.555 8.0898-24.242 17.449-34.875 27.938-9.5117 9.5703-18.055 20.059-25.5 31.312-0.5625 0.64062-1.0625 1.332-1.5 2.0625h-318.38zm52.5 525-11.062-112.5h294.19v3.1875h-1.125c-0.42969-0.10156-0.88281-0.10156-1.3125 0-1.9414 0.65234-3.8203 1.4688-5.625 2.4375l-6.375 4.125c-4.8867 3.6367-9.1875 8-12.75 12.938-1.5547 2.2031-2.9336 4.5234-4.125 6.9375-1.4609 2.8203-2.6523 5.7695-3.5625 8.8125-0.76172 2.2617-1.3242 4.582-1.6875 6.9375-0.66406 3.5859-0.97656 7.2266-0.9375 10.875v37.5 5.625 5.625c0.30078 1.8633 0.80469 3.6836 1.5 5.4375v2.0625z" fill="#031058"/>
</svg>
