<?xml version="1.0" encoding="UTF-8"?>
<svg width="1200pt" height="1200pt" version="1.1" viewBox="0 0 1200 1200" xmlns="http://www.w3.org/2000/svg">
 <g fill="#031058">
  <path d="m1060.8 721.2c0-44.398-50.398-63.602-98.398-79.199-40.801-13.199-61.199-22.801-73.199-30 14.398-8.3984 48-21.602 120-36 20.398-4.8008 33.602-24 28.801-44.398-3.6016-20.398-24-33.602-43.199-28.801-132 26.398-186 57.602-188.4 105.6-3.6016 55.199 64.801 84 133.2 104.4 12 3.6016 20.398 7.1992 27.602 9.6016-49.199 24-164.4 56.398-266.4 86.398-73.199 21.602-112.8 40.801-112.8 78-1.1992 40.801 42 55.199 97.199 74.398 37.199 12 115.2 39.602 115.2 61.199-18 33.602-202.8 62.398-433.2 70.801l-96 75.602c183.6-1.1992 504-15.602 579.6-91.199 20.398-20.398 24-39.602 24-52.801-1.1992-78-96-110.4-166.8-134.4-2.3984-1.1992-6-2.3984-8.3984-3.6016 6-2.3984 13.199-4.8008 21.602-7.1992 262.79-75.602 338.39-99.602 339.59-158.4z"/>
  <path d="m428.4 939.6 418.8-733.2c24-43.199 9.6016-97.199-33.602-121.2l-75.602-43.199c-43.199-24-97.199-9.6016-121.2 33.602l-418.8 732c-12 21.602-20.398 44.398-24 69.602l-34.801 247.2c-1.1992 10.801 3.6016 22.801 13.199 27.602 6 3.6016 14.398 4.8008 21.602 2.3984 3.6016-1.1992 7.1992-2.3984 9.6016-4.8008l196.8-153.6c19.203-15.602 34.801-34.801 48-56.398zm-82.797 12-103.2 81.602-31.199-18 18-130.8c1.1992-7.1992 2.3984-13.199 4.8008-19.199l126 72c-4.8047 5.9961-9.6055 10.797-14.402 14.398z"/>
 </g>
</svg>
